<svg width="217" height="317" viewBox="0 0 217 317" fill="none" xmlns="http://www.w3.org/2000/svg">
<g id="port">
<path id="Vector" d="M175.27 157.88L174.88 164.24L174.32 173.24L174.09 176.98L173.54 185.98L173.3 189.72L172.74 198.72L166.42 300.79C166.145 305.182 164.208 309.304 161.001 312.317C157.794 315.33 153.56 317.008 149.16 317.01H116.3C111.901 317.008 107.668 315.33 104.463 312.316C101.258 309.303 99.3223 305.181 99.05 300.79L92.76 198.65L92.2 189.65L91.97 185.91L91.41 176.91L91.18 173.17L90.62 164.17L90.22 157.81C90.1506 156.586 90.3319 155.361 90.753 154.209C91.1741 153.058 91.826 152.004 92.6687 151.114C93.5115 150.223 94.5273 149.514 95.6539 149.03C96.7804 148.547 97.994 148.298 99.22 148.3H166.43C167.651 148.311 168.858 148.571 169.975 149.066C171.091 149.561 172.095 150.279 172.923 151.177C173.752 152.075 174.387 153.133 174.791 154.285C175.194 155.438 175.358 156.662 175.27 157.88Z" fill="#3F3D56"/>
<path id="Vector_2" d="M0.47998 42.13C0.47998 42.13 46.16 67.48 60.81 88.47C75.46 109.46 132.76 137.79 132.76 137.79" stroke="#535461" stroke-width="2" stroke-miterlimit="10"/>
<path id="Vector_3" d="M60.76 1.63C60.76 1.63 85.62 15.43 93.59 26.85C101.56 38.27 132.76 53.69 132.76 53.69" stroke="#535461" stroke-width="2" stroke-miterlimit="10"/>
<path id="Vector_4" d="M161.61 52.55C138.78 77.64 133.95 110.43 133.95 110.43C133.95 110.43 166.14 102.53 188.95 77.43C211.76 52.33 216.61 19.55 216.61 19.55C216.61 19.55 184.44 27.46 161.61 52.55Z" fill="#6C63FF"/>
</g>
</svg>
